# xmcd
#
# Track frame offsets: 
#        150
#        23800
#        43125
#        61780
#        78360
#        98575
#        118767
#        137235
#        153000
#        167790
#        187700
#        205662
#
# Disc length: 2868 seconds
#
# Revision: 3
# Processed by: cddbd v1.5.2PL0 Copyright (c) Steve Scherf et al.
# Submitted via: ExactAudioCopy v1.0b4
#
DISCID=8e0b320c
DTITLE=鄧麗君 - 忘不了 inoubliable [2001鄧麗君最後錄音] [UPCH-1095]
DYEAR=2001
DGENRE=Pop
TTITLE0=不了情
TTITLE1=人面桃花
TTITLE2=恨不相逢未嫁時
TTITLE3=莫忘今宵
TTITLE4=ABRAHAM,MARTIN AND JOHN
TTITLE5=SMOKE GETS IN YOUR EYES
TTITLE6=WHAT A WONDERFUL WORLD
TTITLE7=LET IT BE ME
TTITLE8=HEAVEN HELP MY HEART
TTITLE9=小窗相思
TTITLE10=恨不相逢未嫁時
TTITLE11=三年
EXTD=
EXTT0=
EXTT1=
EXTT2=
EXTT3=
EXTT4=
EXTT5=
EXTT6=
EXTT7=
EXTT8=
EXTT9=
EXTT10=
EXTT11=
PLAYORDER=
